<?xml version="1.0" encoding="UTF-8" standalone="no"?>
<svg
   width="9.7237978mm"
   height="4.9651313mm"
   viewBox="0 0 9.7237979 4.9651312"
   version="1.1"
   xml:space="preserve"
   style="clip-rule:evenodd;fill-rule:evenodd;stroke-linejoin:round;stroke-miterlimit:2"
   id="svg9"
   sodipodi:docname="pcb-rinth-labs-logo.svg"
   inkscape:version="1.3.2 (091e20e, 2023-11-25, custom)"
   xmlns:inkscape="http://www.inkscape.org/namespaces/inkscape"
   xmlns:sodipodi="http://sodipodi.sourceforge.net/DTD/sodipodi-0.dtd"
   xmlns="http://www.w3.org/2000/svg"
   xmlns:svg="http://www.w3.org/2000/svg"><defs
   id="defs9" /><sodipodi:namedview
   id="namedview9"
   pagecolor="#ffffff"
   bordercolor="#000000"
   borderopacity="0.25"
   inkscape:showpageshadow="2"
   inkscape:pageopacity="0.0"
   inkscape:pagecheckerboard="0"
   inkscape:deskcolor="#d1d1d1"
   inkscape:zoom="20.743589"
   inkscape:cx="15.450557"
   inkscape:cy="17.137825"
   inkscape:window-width="3840"
   inkscape:window-height="2054"
   inkscape:window-x="-11"
   inkscape:window-y="-11"
   inkscape:window-maximized="1"
   inkscape:current-layer="g9"
   inkscape:document-units="mm" />
    <g
   id="Artboard1"
   transform="matrix(0.02467212,0,0,0.01605644,-0.65412291,-0.54497596)">
        
        <g
   id="g2"
   transform="matrix(1,0,0,1.53659,-164.539,-184.884)">
            <path
   id="path1"
   d="m 274.3,174.13 c 0.82,0.97 0.61,5.99 0.56,7.49 -0.22,6.75 -1.19,14.18 -3.43,20.55 -0.42,1.19 -2.34,4.64 -1.84,5.54 0.27,0.42 0.63,0.69 1.11,0.82 2.05,0.57 5.64,0.47 8.03,0.84 20.6,3.23 38.07,18.27 43.51,38.48 4.78,17.72 1.14,32.93 -12.15,45.49 -0.95,0.9 -4.02,2.84 -4.1,4.07 -0.08,1.23 1.93,3.22 2.78,4.2 2.71,3.14 6.09,7.07 8.99,9.95 2.25,2.24 3.08,1.35 4.92,-0.6 1.57,-1.67 3.13,-3.93 4.53,-5.78 1.16,-1.53 2.69,-5.26 4.95,-4.66 0.68,0.18 4.33,2.27 4.85,2.77 1.53,1.46 0.17,3.15 -0.68,4.54 -19.72,32.39 -64.28,44.73 -98.55,29.07 -0.99,-0.45 -4.31,-1.94 -4.65,-2.77 -0.67,-1.64 1.42,-6.76 2.96,-7.4 1.23,-0.52 4.37,1.55 5.69,2.09 18.64,7.71 38.14,8.13 56.73,-0.07 2.56,-1.13 12.35,-6.23 13.47,-8.34 0.81,-1.54 -0.8,-2.52 -1.52,-3.69 -13.32,-15.1 -27.29,-29.66 -40.52,-44.83 -1.07,-1.22 -4.52,-4.22 -2.37,-5.49 1.17,-0.69 4.53,-1.07 6.21,-1.7 6.36,-2.4 11.33,-6.66 10.66,-14.03 -0.92,-10.1 -15.92,-11.87 -22.99,-7.42 -11.1,7 -10.04,20.57 -6.02,31.39 1.2,3.24 2.99,6.15 4.29,9.35 0,1.38 -3.26,3.76 -4.45,4.39 -0.81,0.43 -1.27,0.73 -2.24,0.42 -1.04,-0.33 -3.22,-4.63 -3.79,-5.8 -6.25,-12.89 -8.92,-28.48 0.25,-40.68 7.71,-10.25 20.3,-12.87 32.08,-8.19 13.97,5.55 15.9,23.93 4.92,33.45 -2.04,1.77 -5.59,2.66 -3.12,5.75 3.48,4.37 8.54,9.87 12.46,13.91 1.43,1.47 2.52,3.21 4.76,2.11 7.35,-3.6 13.97,-15.84 14.54,-23.82 3.24,-45.46 -57.43,-66.97 -81.07,-26.17 -12.16,20.98 -7.88,47.55 11.95,61.97 8.43,6.13 17.98,8.45 28.27,5.83 1.91,-0.48 4.69,-2.23 6.41,-1.19 0.94,0.57 4.11,4.63 3.88,5.72 -0.39,1.87 -5.77,3.53 -7.51,4 -26.85,7.34 -52.11,-13.93 -57.51,-39.45 -4.3,-20.3 3.2,-42.97 19.1,-56.27 8.6,-7.19 20.36,-9.33 24.46,-21.09 2.64,-7.56 2.52,-16.14 3.05,-24.04 0.41,-0.96 1.88,-1.17 2.82,-1.26 1.1,-0.1 4.66,-0.24 5.32,0.54 z"
   style="fill-rule:nonzero" />
            <path
   id="path2"
   d="m 348.14,272.29 c -0.31,0.27 -1.29,0.51 -1.73,0.55 -0.99,0.09 -4.83,-0.22 -5.57,-0.67 -0.74,-0.45 -0.85,-1.24 -0.89,-2.09 -0.19,-4.15 0.27,-8.29 -0.13,-12.47 -2.47,-25.56 -19.31,-47.54 -42.68,-57.54 -1.5,-0.64 -6.82,-2.28 -7.58,-3.09 -0.57,-0.61 -0.74,-1.83 -0.81,-2.67 -0.35,-4.4 -0.33,-11.91 0,-16.32 0.22,-2.95 0.89,-3.24 3.73,-3.46 2.44,-0.19 5.13,0.05 7.61,-0.31 2.38,-0.34 2.68,-1.74 2.83,-3.88 0.31,-4.25 0.29,-11.63 -0.27,-15.81 -0.47,-3.53 -5.21,-2.42 -7.78,-2.53 -16.44,-0.7 -33.62,-0.98 -50.08,-0.24 -3.38,0.15 -6.92,-1.2 -7.32,3.23 -0.36,4.01 -0.33,11.32 -0.01,15.35 0.07,0.9 0.24,2.28 0.95,2.88 1.52,1.3 6.41,0.63 8.49,0.85 2.31,0.25 2.84,0.9 3.04,3.2 0.39,4.57 0.37,12.94 0,17.52 -0.07,0.83 -0.23,2.06 -0.81,2.67 -0.8,0.85 -6.56,2.75 -8.15,3.47 -36.76,16.77 -51.91,61.56 -32.4,97.31 0.86,1.58 5.13,7.74 5.18,8.75 0.06,1.4 -3.33,4.24 -4.56,4.8 -0.88,0.4 -1.36,0.54 -2.26,0.07 -1.1,-0.57 -4.42,-6.09 -5.23,-7.48 -21.84,-37.77 -9.03,-86.19 28.5,-108 2.87,-1.67 6.19,-2.89 8.93,-4.5 0.7,-0.41 1.37,-0.94 1.58,-1.78 0.28,-1.08 0.32,-5.92 -0.43,-6.65 -1.68,-1.64 -7.29,0 -9.96,-3.59 -1.87,-2.52 -1.56,-7.46 -1.71,-10.52 -0.24,-5.05 -0.94,-19.75 1.71,-23.69 2.16,-3.21 7.28,-2.63 10.64,-2.79 16.27,-0.78 32.61,-0.39 48.89,0 4.02,0.1 8.23,-0.06 12.23,0.23 4.19,0.31 7.83,0.45 8.93,5.22 0.48,2.09 0.69,5.19 0.78,7.37 0.24,5.46 0.64,16.97 -0.59,21.94 -1.41,5.7 -6.6,4.7 -11.01,5.53 -1.23,0.23 -2.08,0.69 -2.28,2.03 -0.31,2.03 -0.32,4.89 1.58,6.06 2.22,1.38 5.94,2.6 8.48,3.99 25.73,14 44.31,45 40.99,74.81 -0.07,0.59 -0.35,1.83 -0.78,2.21 z"
   style="fill-rule:nonzero" />
        </g>
        <g
   id="g3"
   transform="matrix(1,0,0,1.53659,0.799661,-122.957)">
            <path
   d="m 220.331,182.959 v 22.6 h -10.76 v -57.84 h 17.64 c 3.95,0 7.33,0.41 10.14,1.22 2.81,0.81 5.12,1.95 6.92,3.42 1.8,1.47 3.12,3.22 3.96,5.26 0.84,2.04 1.26,4.29 1.26,6.74 0,1.95 -0.29,3.79 -0.86,5.52 -0.57,1.73 -1.4,3.31 -2.48,4.72 -1.08,1.41 -2.41,2.65 -4,3.72 -1.59,1.07 -3.39,1.92 -5.42,2.56 1.36,0.77 2.53,1.88 3.52,3.32 l 14.48,21.36 h -9.68 c -0.93,0 -1.73,-0.19 -2.38,-0.56 -0.65,-0.37 -1.21,-0.91 -1.66,-1.6 l -12.16,-18.52 c -0.45,-0.69 -0.95,-1.19 -1.5,-1.48 -0.55,-0.29 -1.35,-0.44 -2.42,-0.44 z m 0,-7.72 h 6.72 c 2.03,0 3.79,-0.25 5.3,-0.76 1.51,-0.51 2.75,-1.21 3.72,-2.1 0.97,-0.89 1.7,-1.95 2.18,-3.18 0.48,-1.23 0.72,-2.57 0.72,-4.04 0,-2.93 -0.97,-5.19 -2.9,-6.76 -1.93,-1.57 -4.89,-2.36 -8.86,-2.36 h -6.88 z"
   style="fill-rule:nonzero"
   id="path3" />
        </g>
        <g
   id="g4"
   transform="matrix(1,0,0,1.53659,0.799661,-122.957)">
            <path
   d="m 273.051,152.559 c 0,0.85 -0.17,1.65 -0.52,2.4 -0.35,0.75 -0.81,1.4 -1.38,1.96 -0.57,0.56 -1.25,1.01 -2.02,1.34 -0.77,0.33 -1.6,0.5 -2.48,0.5 -0.88,0 -1.66,-0.17 -2.42,-0.5 -0.76,-0.33 -1.42,-0.78 -1.98,-1.34 -0.56,-0.56 -1.01,-1.21 -1.34,-1.96 -0.33,-0.75 -0.5,-1.55 -0.5,-2.4 0,-0.85 0.17,-1.71 0.5,-2.48 0.33,-0.77 0.78,-1.44 1.34,-2 0.56,-0.56 1.22,-1.01 1.98,-1.34 0.76,-0.33 1.57,-0.5 2.42,-0.5 0.85,0 1.71,0.17 2.48,0.5 0.77,0.33 1.45,0.78 2.02,1.34 0.57,0.56 1.03,1.23 1.38,2 0.35,0.77 0.52,1.6 0.52,2.48 z"
   style="fill-rule:nonzero"
   id="path4" />
        </g>
        <g
   id="g5"
   transform="matrix(1,0,0,1.53659,0.799661,-122.957)">
            <rect
   x="261.69101"
   y="164.519"
   width="9.8800001"
   height="41.040001"
   id="rect4" />
        </g>
        <g
   id="g6"
   transform="matrix(1,0,0,1.53659,0.799661,-122.957)">
            <path
   d="m 282.731,205.559 v -41.04 h 6.04 c 1.28,0 2.12,0.6 2.52,1.8 l 0.68,3.24 c 0.83,-0.85 1.7,-1.63 2.62,-2.32 0.92,-0.69 1.89,-1.29 2.92,-1.8 1.03,-0.51 2.13,-0.89 3.3,-1.16 1.17,-0.27 2.45,-0.4 3.84,-0.4 2.24,0 4.23,0.38 5.96,1.14 1.73,0.76 3.18,1.83 4.34,3.2 1.16,1.37 2.04,3.01 2.64,4.92 0.6,1.91 0.9,4.01 0.9,6.3 v 26.12 h -9.88 v -26.12 c 0,-2.51 -0.58,-4.45 -1.74,-5.82 -1.16,-1.37 -2.9,-2.06 -5.22,-2.06 -1.71,0 -3.31,0.39 -4.8,1.16 -1.49,0.77 -2.91,1.83 -4.24,3.16 v 29.68 z"
   style="fill-rule:nonzero"
   id="path5" />
        </g>
        <g
   id="g7"
   transform="matrix(1,0,0,1.53659,0.799661,-122.957)">
            <path
   d="m 341.691,206.199 c -3.55,0 -6.28,-1.01 -8.2,-3.02 -1.92,-2.01 -2.88,-4.79 -2.88,-8.34 v -22.92 h -4.16 c -0.53,0 -0.99,-0.17 -1.38,-0.52 -0.39,-0.35 -0.58,-0.87 -0.58,-1.56 v -3.92 l 6.6,-1.08 2.08,-11.2 c 0.11,-0.53 0.35,-0.95 0.74,-1.24 0.39,-0.29 0.87,-0.44 1.46,-0.44 h 5.12 v 12.92 h 10.8 v 7.04 h -10.8 v 22.24 c 0,1.28 0.32,2.28 0.96,3 0.64,0.72 1.49,1.08 2.56,1.08 0.61,0 1.13,-0.07 1.54,-0.22 0.41,-0.15 0.77,-0.3 1.08,-0.46 0.31,-0.16 0.58,-0.31 0.82,-0.46 0.24,-0.15 0.48,-0.22 0.72,-0.22 0.29,0 0.53,0.07 0.72,0.22 0.19,0.15 0.39,0.37 0.6,0.66 l 2.96,4.8 c -1.44,1.2 -3.09,2.11 -4.96,2.72 -1.87,0.61 -3.8,0.92 -5.8,0.92 z"
   style="fill-rule:nonzero"
   id="path6" />
        </g>
        <g
   id="g8"
   transform="matrix(1,0,0,1.53659,0.799661,-122.957)">
            <path
   d="m 359.171,205.559 v -59.44 h 9.88 v 22.84 c 1.6,-1.52 3.36,-2.75 5.28,-3.68 1.92,-0.93 4.17,-1.4 6.76,-1.4 2.24,0 4.23,0.38 5.96,1.14 1.73,0.76 3.18,1.83 4.34,3.2 1.16,1.37 2.04,3.01 2.64,4.92 0.6,1.91 0.9,4.01 0.9,6.3 v 26.12 h -9.88 v -26.12 c 0,-2.51 -0.58,-4.45 -1.74,-5.82 -1.16,-1.37 -2.9,-2.06 -5.22,-2.06 -1.71,0 -3.31,0.39 -4.8,1.16 -1.49,0.77 -2.91,1.83 -4.24,3.16 v 29.68 z"
   style="fill-rule:nonzero"
   id="path7" />
        </g>
        <g
   id="g11"
   transform="matrix(1,0,0,1.53659,-164.539,-184.884)">
            <path
   id="path8"
   d="m 383.92,309.3 h 24.8 v 6.52 H 376.16 V 258.5 h 7.76 z"
   style="fill-rule:nonzero" />
            <path
   id="path9"
   d="m 445.92,315.82 h -3.16 c -0.69,0 -1.25,-0.11 -1.68,-0.32 -0.43,-0.21 -0.71,-0.67 -0.84,-1.36 l -0.8,-3.76 c -1.07,0.96 -2.11,1.82 -3.12,2.58 -1.01,0.76 -2.08,1.4 -3.2,1.92 -1.12,0.52 -2.31,0.91 -3.58,1.18 -1.27,0.27 -2.67,0.4 -4.22,0.4 -1.55,0 -3.05,-0.22 -4.42,-0.66 -1.37,-0.44 -2.57,-1.1 -3.58,-1.99 -1.01,-0.88 -1.82,-2 -2.42,-3.35 -0.6,-1.35 -0.9,-2.95 -0.9,-4.8 0,-1.6 0.44,-3.15 1.32,-4.63 0.88,-1.49 2.3,-2.8 4.26,-3.95 1.96,-1.15 4.53,-2.09 7.7,-2.83 3.17,-0.74 7.05,-1.1 11.64,-1.1 v -3.18 c 0,-3.17 -0.67,-5.56 -2.02,-7.18 -1.35,-1.62 -3.34,-2.44 -5.98,-2.44 -1.73,0 -3.19,0.22 -4.38,0.66 -1.19,0.44 -2.21,0.93 -3.08,1.48 -0.87,0.55 -1.61,1.04 -2.24,1.48 -0.63,0.44 -1.25,0.66 -1.86,0.66 -0.48,0 -0.9,-0.13 -1.26,-0.38 -0.36,-0.25 -0.65,-0.57 -0.86,-0.94 l -1.28,-2.28 c 2.24,-2.16 4.65,-3.77 7.24,-4.84 2.59,-1.07 5.45,-1.6 8.6,-1.6 2.27,0 4.28,0.37 6.04,1.12 1.76,0.75 3.24,1.79 4.44,3.12 1.2,1.33 2.11,2.95 2.72,4.84 0.61,1.89 0.92,3.97 0.92,6.24 v 25.92 z m -18.48,-4.36 c 1.25,0 2.4,-0.13 3.44,-0.38 1.04,-0.25 2.02,-0.61 2.94,-1.08 0.92,-0.47 1.8,-1.03 2.64,-1.7 0.84,-0.67 1.66,-1.43 2.46,-2.28 v -8.36 c -3.28,0 -6.07,0.21 -8.36,0.62 -2.29,0.42 -4.16,0.96 -5.6,1.63 -1.44,0.67 -2.49,1.46 -3.14,2.37 -0.65,0.91 -0.98,1.93 -0.98,3.06 0,1.13 0.17,2 0.52,2.78 0.35,0.78 0.81,1.42 1.4,1.91 0.59,0.5 1.28,0.86 2.08,1.09 0.8,0.23 1.67,0.34 2.6,0.34 z"
   style="fill-rule:nonzero" />
            <path
   id="path10"
   d="M 456.96,315.82 V 256.9 h 7.16 v 24.24 c 1.68,-1.95 3.61,-3.51 5.78,-4.7 2.17,-1.19 4.66,-1.78 7.46,-1.78 2.35,0 4.47,0.44 6.36,1.32 1.89,0.88 3.51,2.19 4.84,3.94 1.33,1.75 2.36,3.91 3.08,6.48 0.72,2.57 1.08,5.54 1.08,8.9 0,2.99 -0.4,5.77 -1.2,8.34 -0.8,2.57 -1.95,4.8 -3.46,6.68 -1.51,1.88 -3.35,3.36 -5.52,4.44 -2.17,1.08 -4.62,1.62 -7.34,1.62 -2.72,0 -4.83,-0.51 -6.66,-1.52 -1.83,-1.01 -3.42,-2.43 -4.78,-4.24 l -0.36,3.68 c -0.21,1.01 -0.83,1.52 -1.84,1.52 z m 18.08,-35.48 c -2.32,0 -4.35,0.53 -6.1,1.6 -1.75,1.07 -3.35,2.57 -4.82,4.52 v 19.6 c 1.28,1.76 2.7,3 4.26,3.72 1.56,0.72 3.3,1.08 5.22,1.08 3.79,0 6.69,-1.35 8.72,-4.04 2.03,-2.69 3.04,-6.53 3.04,-11.52 0,-2.64 -0.23,-4.91 -0.7,-6.8 -0.47,-1.89 -1.14,-3.45 -2.02,-4.66 -0.88,-1.21 -1.96,-2.1 -3.24,-2.66 -1.28,-0.56 -2.73,-0.84 -4.36,-0.84 z"
   style="fill-rule:nonzero" />
            <path
   id="path11"
   d="m 524.64,281.98 c -0.32,0.59 -0.81,0.88 -1.48,0.88 -0.4,0 -0.85,-0.15 -1.36,-0.44 -0.51,-0.29 -1.13,-0.62 -1.86,-0.98 -0.73,-0.36 -1.61,-0.69 -2.62,-1 -1.01,-0.31 -2.21,-0.46 -3.6,-0.46 -1.2,0 -2.28,0.15 -3.24,0.46 -0.96,0.31 -1.78,0.73 -2.46,1.26 -0.68,0.53 -1.2,1.15 -1.56,1.86 -0.36,0.71 -0.54,1.47 -0.54,2.3 0,1.04 0.3,1.91 0.9,2.6 0.6,0.69 1.39,1.29 2.38,1.8 0.99,0.51 2.11,0.95 3.36,1.34 1.25,0.39 2.54,0.8 3.86,1.24 1.32,0.44 2.61,0.93 3.86,1.46 1.25,0.53 2.37,1.2 3.36,2 0.99,0.8 1.78,1.78 2.38,2.94 0.6,1.16 0.9,2.55 0.9,4.18 0,1.87 -0.33,3.59 -1,5.18 -0.67,1.59 -1.65,2.96 -2.96,4.12 -1.31,1.16 -2.91,2.07 -4.8,2.74 -1.89,0.67 -4.08,1 -6.56,1 -2.83,0 -5.39,-0.46 -7.68,-1.38 -2.29,-0.92 -4.24,-2.1 -5.84,-3.54 l 1.68,-2.72 c 0.21,-0.35 0.47,-0.61 0.76,-0.8 0.29,-0.19 0.68,-0.28 1.16,-0.28 0.48,0 0.99,0.19 1.52,0.56 0.53,0.37 1.18,0.79 1.94,1.24 0.76,0.45 1.68,0.87 2.76,1.24 1.08,0.37 2.43,0.56 4.06,0.56 1.39,0 2.6,-0.18 3.64,-0.54 1.04,-0.36 1.91,-0.85 2.6,-1.46 0.69,-0.61 1.21,-1.32 1.54,-2.12 0.33,-0.8 0.5,-1.65 0.5,-2.56 0,-1.12 -0.3,-2.05 -0.9,-2.78 -0.6,-0.73 -1.39,-1.36 -2.38,-1.88 -0.99,-0.52 -2.11,-0.97 -3.38,-1.36 -1.27,-0.39 -2.56,-0.79 -3.88,-1.22 -1.32,-0.43 -2.61,-0.91 -3.88,-1.46 -1.27,-0.55 -2.39,-1.23 -3.38,-2.06 -0.99,-0.83 -1.78,-1.85 -2.38,-3.06 -0.6,-1.21 -0.9,-2.69 -0.9,-4.42 0,-1.55 0.32,-3.03 0.96,-4.46 0.64,-1.43 1.57,-2.68 2.8,-3.76 1.23,-1.08 2.73,-1.94 4.52,-2.58 1.79,-0.64 3.83,-0.96 6.12,-0.96 2.67,0 5.06,0.42 7.18,1.26 2.12,0.84 3.95,1.99 5.5,3.46 z"
   style="fill-rule:nonzero" />
        </g>
        <g
   transform="matrix(0.26614134,0,0,0.40895098,392.81006,111.275)"
   id="g9">
            <path
   d="M 41.94,-52.056 V -44.1 H 26.28 V 0 H 16.596 V -44.1 H 0.864 v -7.956 z M 74.231951,-21.6 q 0.612,1.152 1.116,2.412 0.54,1.224 1.044,2.484 0.504,-1.296 1.044,-2.556 0.54,-1.26 1.152,-2.412 l 15.408,-28.836 q 0.288,-0.54 0.576,-0.864 0.324,-0.324 0.684,-0.468 0.396,-0.144 0.864,-0.18 0.468,-0.036 1.116,-0.036 h 7.307999 V 0 h -8.531999 v -33.624 q 0,-0.936 0.036,-2.052 0.072,-1.116 0.18,-2.268 l -15.732,29.52 q -0.54,1.008 -1.404,1.584 -0.864,0.54 -2.016,0.54 h -1.332 q -1.152,0 -2.016,-0.54 -0.864,-0.576 -1.404,-1.584 l -15.948,-29.628 q 0.144,1.188 0.18,2.34 0.072,1.116 0.072,2.088 V 0 h -8.532 v -52.056 h 7.308 q 0.648,0 1.116,0.036 0.468,0.036 0.828,0.18 0.396,0.144 0.72,0.468 0.324,0.324 0.612,0.864 l 15.552,28.908 z"
   id="text8"
   style="font-weight:700;font-size:72px;font-family:Lato-Bold, Lato"
   aria-label="TM" />
        </g>
    </g>
    <g
   id="Artboard3"
   transform="translate(-7.5499649,-4.4051)">
        
    </g>
</svg>
