<?xml version="1.0" encoding="UTF-8" standalone="no"?>
<!-- Created with Inkscape (http://www.inkscape.org/) -->

<svg
   width="10.816511mm"
   height="4.8629999mm"
   viewBox="0 0 10.816511 4.8629999"
   version="1.1"
   id="svg1"
   inkscape:version="1.3.2 (091e20e, 2023-11-25, custom)"
   sodipodi:docname="pcb-solder-sidekick-logov2.svg"
   xmlns:inkscape="http://www.inkscape.org/namespaces/inkscape"
   xmlns:sodipodi="http://sodipodi.sourceforge.net/DTD/sodipodi-0.dtd"
   xmlns="http://www.w3.org/2000/svg"
   xmlns:svg="http://www.w3.org/2000/svg">
  <sodipodi:namedview
     id="namedview1"
     pagecolor="#ffffff"
     bordercolor="#000000"
     borderopacity="0.25"
     inkscape:showpageshadow="2"
     inkscape:pageopacity="0.0"
     inkscape:pagecheckerboard="0"
     inkscape:deskcolor="#d1d1d1"
     inkscape:document-units="mm"
     inkscape:zoom="6.5459876"
     inkscape:cx="16.575039"
     inkscape:cy="61.182517"
     inkscape:window-width="3840"
     inkscape:window-height="2054"
     inkscape:window-x="-11"
     inkscape:window-y="-11"
     inkscape:window-maximized="1"
     inkscape:current-layer="layer1" />
  <defs
     id="defs1" />
  <g
     inkscape:label="Layer 1"
     inkscape:groupmode="layer"
     id="layer1"
     transform="translate(-151.34167,-100.80625)">
    <g
       transform="matrix(0.06727092,0,0,0.06256658,151.0182,99.535051)"
       id="g20"
       style="clip-rule:evenodd;display:inline;fill-rule:evenodd;stroke-linejoin:round;stroke-miterlimit:2">
                    <g
   transform="matrix(0.930066,0,0,1,-5.58039,0)"
   id="g3">
                        <path
   d="m 113.56,70.72 v -3.91 c -0.2,-0.05 -0.14,0.04 -0.2,0.11 -1.97,2.51 -4.08,3.92 -7.41,4.15 -11.7,0.78 -16.27,-12.86 -11.82,-21.98 3.71,-7.6 13.58,-9.37 19.23,-2.8 0.05,0.06 0,0.16 0.2,0.11 V 33.54 h 8.47 l 0.13,0.13 v 36.92 l -0.13,0.13 z m -6.98,-20.91 c -6.15,0.63 -7.11,10.16 -2.13,13.02 3.7,2.12 8.17,-0.25 8.9,-4.34 0.82,-4.61 -1.58,-9.21 -6.77,-8.68 z"
   style="fill-rule:nonzero"
   id="path3" />

                    </g>

                    <g
   transform="matrix(0.930066,0,0,1,-5.58039,0)"
   id="g4">
                        <path
   d="m 135.19,58.73 c 0.09,1.82 0.81,3.53 2.37,4.54 1.73,1.12 4.48,1.14 6.1,-0.19 0.6,-0.49 0.94,-1.13 1.39,-1.74 h 8.99 c -0.05,0.67 -0.35,1.41 -0.62,2.03 -5.23,11.97 -24.88,9.79 -26.65,-4.17 -1.29,-10.19 5.11,-17.8 15.59,-16.88 8.64,0.75 13.31,7.86 12.3,16.2 l -0.13,0.22 h -19.34 z m 10.78,-4.77 c -0.17,-6.47 -10.27,-6.32 -10.69,0 z"
   style="fill-rule:nonzero"
   id="path4" />

                    </g>

                    <g
   transform="matrix(0.930066,0,0,1,-5.58039,0)"
   id="g5">
                        <path
   d="m 60.18,42.25 c 7.18,-0.07 13.31,4.26 14.5,11.52 C 76.36,63.98 69.4,71.65 59.1,71.08 41,70.07 41.2,42.45 60.17,42.26 Z m -0.35,7.48 c -7.31,0.63 -6.84,13.28 -0.37,13.87 9.1,0.84 8.8,-14.59 0.37,-13.87 z"
   style="fill-rule:nonzero"
   id="path5" />

                    </g>

                    <g
   transform="matrix(0.930066,0,0,1,-5.58039,0)"
   id="g6">
                        <path
   d="m 20.13,32.32 v 9.43 c 0,0.39 1.09,2.22 1.39,2.6 2.11,2.68 6.97,3.76 10.1,4.93 6.17,2.31 10.75,4.96 10.23,12.44 -0.31,4.52 -3.59,8.45 -7.73,10.03 L 34.3,69.1 c 0.04,-1.84 0.19,-4.03 -1.9,-4.75 0,-1.55 0.1,-2.84 -0.52,-4.3 -0.55,-1.3 -1.54,-2.34 -2.86,-2.87 -4.59,-1.86 -10.51,-2.2 -14.32,-5.67 -2.86,-2.6 -3.63,-5.6 -3.33,-9.42 0.38,-4.89 4.17,-8.59 8.77,-9.78 z"
   style="fill-rule:nonzero"
   id="path6" />

                    </g>

                    <g
   transform="matrix(0.930066,0,0,1,-5.58039,0)"
   id="g7">
                        <rect
   x="79.489998"
   y="33.540001"
   width="8.6000004"
   height="37.18"
   id="rect6" />

                    </g>

                    <g
   transform="matrix(0.930066,0,0,1,-5.58039,0)"
   id="g8">
                        <path
   d="m 176.65,42.4 v 9.04 c -2.94,0.02 -6.94,-0.3 -8.27,2.98 -0.28,0.7 -0.46,1.61 -0.51,2.36 -0.28,4.44 0.21,9.18 0,13.65 l -0.13,0.3 h -8.47 V 42.67 h 8.6 v 4.52 c 1.6,-2.12 3.58,-3.85 6.22,-4.51 0.29,-0.07 1.05,-0.27 1.3,-0.27 h 1.26 z"
   style="fill-rule:nonzero"
   id="path7" />

                    </g>

                    <g
   transform="matrix(0.930066,0,0,1,-5.58039,0)"
   id="g9">
                        <path
   d="m 27.32,95.19 -0.04,-4.08 1.81,-1.76 0.13,-15.42 c 0.11,-1.18 1.69,-1.09 2.59,-1.41 0.73,-0.26 0.93,-0.47 1.01,-1.25 0.11,-1.07 0.19,-3.02 0.1,-4.08 -0.1,-1.21 -0.7,-1.71 -1.92,-1.52 v -3.95 c 0,-0.08 -0.35,-0.99 -0.42,-1.14 -0.73,-1.64 -1.67,-1.95 -3.25,-2.48 -1.91,-0.64 -3.88,-1.11 -5.8,-1.71 v 9.3 c -0.78,-0.15 -1.69,0.08 -1.87,0.95 -0.18,0.87 -0.09,4.03 0.06,4.99 0.23,1.48 3.28,0.68 3.53,2.2 0.13,0.76 0.09,2.33 0.11,3.19 0.09,3.8 0,12.12 0.05,12.37 l 1.78,1.64 c 0.03,1.15 0,4.13 0,4.13 l 1.09,2.51 1.06,-2.48 z"
   style="fill-rule:nonzero"
   id="path8" />

                    </g>

                    <g
   transform="matrix(0.930066,0,0,1,-5.58039,0)"
   id="g10">
                        <path
   d="m 146.75,77.33 -5.95,8.43 -0.39,0.73 c 0.73,3.38 1.86,6.66 2.9,9.95 l 3.17,-17.84 4.17,-0.72 0.18,0.1 -3.16,19.25 -4.52,0.6 0.04,-0.78 -5.3,0.05 -1.17,-7.44 -0.48,0.57 -1.4,7.07 -4.42,0.62 c 1.28,-6.66 2.76,-13.31 3.43,-20.07 l 4.57,0.18 -1.02,5.63 0.11,0.19 3.8,-5.98 5.46,-0.54 z"
   style="fill-rule:nonzero"
   id="path9" />

                    </g>

                    <g
   transform="matrix(0.930066,0,0,1,-5.58039,0)"
   id="g11">
                        <path
   d="m 27.52,27.2 h 1.26 L 31,31.59 V 47.45 C 29.45,46.97 27.88,46.47 26.37,45.86 24.12,44.97 22.35,44.02 21.56,41.54 L 21.54,31.52 23.6,27.33 c 0.25,-0.26 0.95,-0.07 1.31,-0.13 v -5.69 c 0,-0.24 0.46,-1 0.72,-1.11 0.23,-0.09 0.97,-0.12 1.19,-0.02 0.19,0.09 0.7,0.75 0.7,0.95 z"
   style="fill-rule:nonzero"
   id="path10" />

                    </g>

                    <g
   transform="matrix(0.930066,0,0,1,-5.58039,0)"
   id="g12">
                        <path
   d="m 167.91,97.05 c -0.06,0 -0.19,0.14 -0.3,0.09 -0.34,-2.41 -0.72,-4.83 -1.05,-7.25 -0.02,-0.12 0.08,-0.26 -0.13,-0.22 l -0.48,0.74 -1.35,6.82 -4.48,0.69 c 1.4,-6.67 2.78,-13.37 3.48,-20.15 l 4.6,0.26 -1,5.82 3.87,-5.95 5.48,-0.52 c -2.2,2.95 -4.43,5.91 -6.34,9.04 0.65,3.67 2.06,7.15 3.04,10.72 -0.1,0.03 -0.19,-0.09 -0.22,-0.09 -1.66,0 -3.5,-0.1 -5.13,0 z"
   style="fill-rule:nonzero"
   id="path11" />

                    </g>

                    <g
   transform="matrix(0.930066,0,0,1,-5.58039,0)"
   id="g13">
                        <path
   d="m 108.69,97.92 3.57,-19.54 c 3.35,-0.67 8.1,-1.72 9.8,2.22 1.47,3.42 0.06,7.88 -1.74,10.92 -2.43,4.1 -6.63,7.2 -11.63,6.4 z m 4.87,-3.48 c 0.16,0.02 0.27,-0.09 0.39,-0.17 2.12,-1.56 4.67,-7.97 4.57,-10.55 -0.05,-1.3 -1.05,-2.24 -2.36,-2 z"
   style="fill-rule:nonzero"
   id="path12" />

                    </g>

                    <g
   transform="matrix(0.930066,0,0,1,-5.58039,0)"
   id="g14">
                        <path
   d="m 101.3,83.75 c 0.07,-0.61 0.18,-1.13 -0.05,-1.73 -0.56,-1.51 -2.56,-0.11 -2.78,0.95 -0.37,1.78 1.86,2.5 2.96,3.4 1.73,1.43 2.15,3.43 1.96,5.6 -0.48,5.41 -8.63,8.4 -11.79,3.48 l 1.97,-3.91 c 0.06,-0.08 0.13,0.04 0.17,0.09 0.97,1.11 2.46,2.27 4.02,1.67 0.96,-0.37 1.3,-1.03 1.05,-2.05 -0.49,-1.97 -4.96,-3.3 -5.57,-5.99 -0.68,-2.99 2.34,-5.56 4.78,-6.64 3.68,-1.62 8.48,-1.31 7.26,3.95 l -3.98,1.19 z"
   style="fill-rule:nonzero"
   id="path13" />

                    </g>

                    <g
   transform="matrix(0.930066,0,0,1,-5.58039,0)"
   id="g15">
                        <path
   d="m 158.94,83.22 c 0,0 -0.26,-0.46 -0.45,-0.55 -0.92,-0.39 -1.81,1.16 -2.19,1.81 -1,1.73 -2.76,6.08 -2.32,8 0.49,2.19 3.14,-0.64 3.12,-1.77 l 3.21,1.22 c -0.87,2.14 -2.26,4.22 -4.34,5.34 -2.84,1.54 -5.21,0.37 -6.04,-2.65 -1.56,-5.71 2.28,-17.04 9.38,-16.94 2.38,0.03 3.72,2.52 3.27,4.65 -0.5,0.06 -3.42,1.02 -3.64,0.89 z"
   style="fill-rule:nonzero"
   id="path14" />

                    </g>

                    <g
   transform="matrix(0.930066,0,0,1,-5.58039,0)"
   id="g16">
                        <path
   d="m 133.28,77.59 -0.69,3.3 -4.13,0.17 -0.91,4.87 3.73,-0.18 -0.51,3.09 -3.65,0.14 -0.96,4.98 3.99,-0.56 -0.21,3.04 -8.91,1.48 3.57,-19.63 z"
   style="fill-rule:nonzero"
   id="path15" />

                    </g>

                    <g
   transform="matrix(0.930066,0,0,1,-5.58039,0)"
   id="g17">
                        <path
   d="m 103.21,97.83 3.39,-19.23 4.22,-0.75 -3.01,19.32 z"
   style="fill-rule:nonzero"
   id="path16" />

                    </g>

                    <g
   transform="matrix(0.930066,0,0,1,-5.58039,0)"
   id="g18">
                        <path
   d="M 41.34,43.62 H 32.39 V 32.33 c 5.12,1.46 8.96,5.83 8.95,11.29 z"
   style="fill-rule:nonzero"
   id="path17" />

                    </g>

                    <g
   transform="matrix(0.930066,0,0,1,-5.58039,0)"
   id="g19">
                        <path
   d="m 20.13,60.47 v 3.91 c -0.71,0.13 -1.34,0.72 -1.63,1.37 -0.45,1.01 -0.33,3.57 -0.29,4.76 0,0.15 0.23,0.81 -0.04,0.73 -0.43,-0.13 -1.74,-1.01 -2.16,-1.32 -3.05,-2.23 -4.77,-5.66 -4.84,-9.45 z"
   style="fill-rule:nonzero"
   id="path18" />

                    </g>

                </g>
    <g
       transform="matrix(0.0625664,0,0,0.06256658,152.73374,101.02323)"
       id="g21"
       style="clip-rule:evenodd;fill-rule:evenodd;stroke-linejoin:round;stroke-miterlimit:2">
                    <path
   d="m 146.226,13.411 v 0.685 h -0.93 v 2.825 h -0.855 v -2.825 h -0.93 v -0.685 z"
   style="fill-rule:nonzero"
   id="path20" />

                    <path
   d="m 150.631,13.411 v 3.51 h -0.855 v -2.105 l -0.785,2.105 h -0.69 l -0.79,-2.11 v 2.11 h -0.855 v -3.51 h 1.01 l 0.985,2.43 0.975,-2.43 z"
   style="display:inline;fill-rule:nonzero"
   id="path21" />

                </g>
  </g>
</svg>
