M48
; DRILL file {KiCad 9.0.1} date 2025-05-06T20:19:13-0400
; FORMAT={-:-/ absolute / metric / decimal}
; #@! TF.CreationDate,2025-05-06T20:19:13-04:00
; #@! TF.GenerationSoftware,Kicad,Pcbnew,9.0.1
; #@! TF.FileFunction,Plated,1,2,PTH
FMAT,2
METRIC
; #@! TA.AperFunction,Plated,PTH,ComponentDrill
T1C1.000
%
G90
G05
T1
X5.17Y41.14
X5.17Y38.6
X5.17Y36.06
X5.17Y33.52
X5.17Y30.98
X5.17Y23.02
X5.17Y20.48
X5.17Y17.94
X5.17Y15.4
X5.17Y12.86
X6.44Y50.63
X6.44Y48.43
X6.44Y5.57
X6.44Y3.37
X7.71Y40.8
X7.71Y38.26
X7.71Y35.72
X7.71Y33.18
X7.71Y30.64
X7.71Y23.36
X7.71Y20.82
X7.71Y18.28
X7.71Y15.74
X7.71Y13.2
X8.98Y50.97
X8.98Y48.09
X8.98Y5.91
X8.98Y3.03
X10.25Y41.14
X10.25Y38.6
X10.25Y36.06
X10.25Y33.52
X10.25Y30.98
X10.25Y23.02
X10.25Y20.48
X10.25Y17.94
X10.25Y15.4
X10.25Y12.86
X11.52Y50.63
X11.52Y48.43
X11.52Y5.57
X11.52Y3.37
X12.79Y40.8
X12.79Y38.26
X12.79Y35.72
X12.79Y33.18
X12.79Y30.64
X12.79Y23.36
X12.79Y20.82
X12.79Y18.28
X12.79Y15.74
X12.79Y13.2
X14.06Y50.97
X14.06Y48.09
X14.06Y5.91
X14.06Y3.03
X15.33Y41.14
X15.33Y38.6
X15.33Y36.06
X15.33Y33.52
X15.33Y30.98
X15.33Y23.02
X15.33Y20.48
X15.33Y17.94
X15.33Y15.4
X15.33Y12.86
X16.6Y48.43
X16.6Y3.37
X16.77Y50.8
X16.77Y5.74
X17.87Y40.8
X17.87Y38.26
X17.87Y35.72
X17.87Y33.18
X17.87Y30.64
X17.87Y23.36
X17.87Y20.82
X17.87Y18.28
X17.87Y15.74
X17.87Y13.2
X20.41Y41.14
X20.41Y38.6
X20.41Y36.06
X20.41Y33.52
X20.41Y30.98
X20.41Y23.02
X20.41Y20.48
X20.41Y17.94
X20.41Y15.4
X20.41Y12.86
X21.68Y50.97
X21.68Y48.09
X21.68Y5.91
X21.68Y3.03
X22.95Y40.8
X22.95Y38.26
X22.95Y35.72
X22.95Y33.18
X22.95Y30.64
X22.95Y23.36
X22.95Y20.82
X22.95Y18.28
X22.95Y15.74
X22.95Y13.2
X24.22Y50.63
X24.22Y48.43
X24.22Y5.57
X24.22Y3.37
X25.49Y41.14
X25.49Y38.6
X25.49Y36.06
X25.49Y33.52
X25.49Y30.98
X25.49Y23.02
X25.49Y20.48
X25.49Y17.94
X25.49Y15.4
X25.49Y12.86
X26.76Y50.97
X26.76Y48.09
X26.76Y5.91
X26.76Y3.03
X28.03Y40.8
X28.03Y38.26
X28.03Y35.72
X28.03Y33.18
X28.03Y30.64
X28.03Y23.36
X28.03Y20.82
X28.03Y18.28
X28.03Y15.74
X28.03Y13.2
X29.3Y50.63
X29.3Y48.43
X29.3Y5.57
X29.3Y3.37
X30.57Y41.14
X30.57Y38.6
X30.57Y36.06
X30.57Y33.52
X30.57Y30.98
X30.57Y23.02
X30.57Y20.48
X30.57Y17.94
X30.57Y15.4
X30.57Y12.86
X31.84Y50.97
X31.84Y5.91
X32.01Y48.26
X32.01Y3.2
X33.11Y40.8
X33.11Y38.26
X33.11Y35.72
X33.11Y33.18
X33.11Y30.64
X33.11Y23.36
X33.11Y20.82
X33.11Y18.28
X33.11Y15.74
X33.11Y13.2
X35.65Y41.14
X35.65Y38.6
X35.65Y36.06
X35.65Y33.52
X35.65Y30.98
X35.65Y23.02
X35.65Y20.48
X35.65Y17.94
X35.65Y15.4
X35.65Y12.86
X36.92Y50.63
X36.92Y48.43
X36.92Y5.57
X36.92Y3.37
X38.19Y40.8
X38.19Y38.26
X38.19Y35.72
X38.19Y33.18
X38.19Y30.64
X38.19Y23.36
X38.19Y20.82
X38.19Y18.28
X38.19Y15.74
X38.19Y13.2
X39.46Y50.97
X39.46Y48.09
X39.46Y5.91
X39.46Y3.03
X40.73Y41.14
X40.73Y38.6
X40.73Y36.06
X40.73Y33.52
X40.73Y30.98
X40.73Y23.02
X40.73Y20.48
X40.73Y17.94
X40.73Y15.4
X40.73Y12.86
X42.0Y50.63
X42.0Y48.43
X42.0Y5.57
X42.0Y3.37
X43.27Y40.8
X43.27Y38.26
X43.27Y35.72
X43.27Y33.18
X43.27Y30.64
X43.27Y23.36
X43.27Y20.82
X43.27Y18.28
X43.27Y15.74
X43.27Y13.2
X44.54Y50.97
X44.54Y48.09
X44.54Y5.91
X44.54Y3.03
X45.81Y41.14
X45.81Y38.6
X45.81Y36.06
X45.81Y33.52
X45.81Y30.98
X45.81Y23.02
X45.81Y20.48
X45.81Y17.94
X45.81Y15.4
X45.81Y12.86
X47.08Y48.43
X47.08Y3.37
X47.25Y50.8
X47.25Y5.74
X48.35Y40.8
X48.35Y38.26
X48.35Y35.72
X48.35Y33.18
X48.35Y30.64
X48.35Y23.36
X48.35Y20.82
X48.35Y18.28
X48.35Y15.74
X48.35Y13.2
X50.89Y41.14
X50.89Y38.6
X50.89Y36.06
X50.89Y33.52
X50.89Y30.98
X50.89Y23.02
X50.89Y20.48
X50.89Y17.94
X50.89Y15.4
X50.89Y12.86
X52.16Y50.97
X52.16Y48.09
X52.16Y5.91
X52.16Y3.03
X53.43Y40.8
X53.43Y38.26
X53.43Y35.72
X53.43Y33.18
X53.43Y30.64
X53.43Y23.36
X53.43Y20.82
X53.43Y18.28
X53.43Y15.74
X53.43Y13.2
X54.7Y50.63
X54.7Y48.43
X54.7Y5.57
X54.7Y3.37
X55.97Y41.14
X55.97Y38.6
X55.97Y36.06
X55.97Y33.52
X55.97Y30.98
X55.97Y23.02
X55.97Y20.48
X55.97Y17.94
X55.97Y15.4
X55.97Y12.86
X57.24Y50.97
X57.24Y48.09
X57.24Y5.91
X57.24Y3.03
X58.51Y40.8
X58.51Y38.26
X58.51Y35.72
X58.51Y33.18
X58.51Y30.64
X58.51Y23.36
X58.51Y20.82
X58.51Y18.28
X58.51Y15.74
X58.51Y13.2
X59.78Y50.63
X59.78Y48.43
X59.78Y5.57
X59.78Y3.37
X61.05Y41.14
X61.05Y38.6
X61.05Y36.06
X61.05Y33.52
X61.05Y30.98
X61.05Y23.02
X61.05Y20.48
X61.05Y17.94
X61.05Y15.4
X61.05Y12.86
X62.32Y50.97
X62.32Y5.91
X62.49Y48.26
X62.49Y3.2
X63.59Y40.8
X63.59Y38.26
X63.59Y35.72
X63.59Y33.18
X63.59Y30.64
X63.59Y23.36
X63.59Y20.82
X63.59Y18.28
X63.59Y15.74
X63.59Y13.2
X66.13Y41.14
X66.13Y38.6
X66.13Y36.06
X66.13Y33.52
X66.13Y30.98
X66.13Y23.02
X66.13Y20.48
X66.13Y17.94
X66.13Y15.4
X66.13Y12.86
X67.4Y50.63
X67.4Y48.43
X67.4Y5.57
X67.4Y3.37
X68.67Y40.8
X68.67Y38.26
X68.67Y35.72
X68.67Y33.18
X68.67Y30.64
X68.67Y23.36
X68.67Y20.82
X68.67Y18.28
X68.67Y15.74
X68.67Y13.2
X69.94Y50.97
X69.94Y48.09
X69.94Y5.91
X69.94Y3.03
X71.21Y41.14
X71.21Y38.6
X71.21Y36.06
X71.21Y33.52
X71.21Y30.98
X71.21Y23.02
X71.21Y20.48
X71.21Y17.94
X71.21Y15.4
X71.21Y12.86
X72.48Y50.63
X72.48Y48.43
X72.48Y5.57
X72.48Y3.37
X73.75Y40.8
X73.75Y38.26
X73.75Y35.72
X73.75Y33.18
X73.75Y30.64
X73.75Y23.36
X73.75Y20.82
X73.75Y18.28
X73.75Y15.74
X73.75Y13.2
X75.02Y50.97
X75.02Y48.09
X75.02Y5.91
X75.02Y3.03
X76.29Y41.14
X76.29Y38.6
X76.29Y36.06
X76.29Y33.52
X76.29Y30.98
X76.29Y23.02
X76.29Y20.48
X76.29Y17.94
X76.29Y15.4
X76.29Y12.86
X77.56Y48.43
X77.56Y3.37
X77.73Y50.8
X77.73Y5.74
X78.83Y40.8
X78.83Y38.26
X78.83Y35.72
X78.83Y33.18
X78.83Y30.64
X78.83Y23.36
X78.83Y20.82
X78.83Y18.28
X78.83Y15.74
X78.83Y13.2
M30
